<svg width="141" height="22" viewBox="0 0 141 22" fill="none" xmlns="http://www.w3.org/2000/svg">
<path d="M0.62642 11.4929V10.5341C1.34659 10.5341 1.84943 10.3871 2.13494 10.093C2.42045 9.79474 2.56321 9.30256 2.56321 8.61648V6.78196C2.56321 6.12997 2.63565 5.58239 2.78054 5.1392C2.92969 4.69176 3.15554 4.33381 3.4581 4.06534C3.76065 3.79687 4.14418 3.60298 4.60866 3.48366C5.07315 3.36435 5.62074 3.30469 6.25142 3.30469V4.8196C5.7571 4.8196 5.37145 4.89205 5.09446 5.03693C4.81747 5.18182 4.62358 5.40767 4.51278 5.71449C4.40625 6.01704 4.35298 6.40483 4.35298 6.87784V9.20455C4.35298 9.53267 4.30398 9.83736 4.20597 10.1186C4.10795 10.3956 3.92685 10.6364 3.66264 10.8409C3.39844 11.0455 3.02131 11.2053 2.53125 11.3203C2.04119 11.4354 1.40625 11.4929 0.62642 11.4929ZM6.25142 19.6108C5.62074 19.6108 5.07315 19.5511 4.60866 19.4318C4.14418 19.3125 3.76065 19.1186 3.4581 18.8501C3.15554 18.5817 2.92969 18.2259 2.78054 17.7827C2.63565 17.3352 2.56321 16.7855 2.56321 16.1335V14.2926C2.56321 13.6108 2.42045 13.1207 2.13494 12.8224C1.84943 12.5241 1.34659 12.375 0.62642 12.375V11.4226C1.40625 11.4226 2.04119 11.4801 2.53125 11.5952C3.02131 11.706 3.39844 11.8658 3.66264 12.0746C3.92685 12.2791 4.10795 12.522 4.20597 12.8033C4.30398 13.0803 4.35298 13.3828 4.35298 13.7109V16.0376C4.35298 16.5064 4.40625 16.8942 4.51278 17.201C4.62358 17.5036 4.81747 17.7294 5.09446 17.8786C5.37145 18.0234 5.7571 18.0959 6.25142 18.0959V19.6108ZM0.62642 12.375V10.5341H2.39702V12.375H0.62642ZM139.659 12.5348V13.4872C138.939 13.4872 138.436 13.6364 138.151 13.9347C137.865 14.233 137.723 14.723 137.723 15.4048V17.2457C137.723 17.8977 137.648 18.4453 137.499 18.8885C137.354 19.3359 137.13 19.6939 136.828 19.9624C136.525 20.2308 136.142 20.4247 135.677 20.544C135.213 20.6634 134.665 20.723 134.034 20.723V19.2081C134.529 19.2081 134.914 19.1335 135.191 18.9844C135.468 18.8395 135.66 18.6136 135.767 18.3068C135.878 18.0043 135.933 17.6186 135.933 17.1499V14.8232C135.933 14.495 135.982 14.1925 136.08 13.9155C136.178 13.6342 136.359 13.3913 136.623 13.1868C136.887 12.978 137.265 12.8182 137.755 12.7074C138.245 12.5923 138.88 12.5348 139.659 12.5348ZM134.034 4.4169C134.665 4.4169 135.213 4.47656 135.677 4.59588C136.142 4.7152 136.525 4.90909 136.828 5.17756C137.13 5.44602 137.354 5.80398 137.499 6.25142C137.648 6.6946 137.723 7.24219 137.723 7.89418V9.72869C137.723 10.4148 137.865 10.907 138.151 11.2053C138.436 11.4993 138.939 11.6463 139.659 11.6463V12.6051C138.88 12.6051 138.245 12.5476 137.755 12.4325C137.265 12.3175 136.887 12.1577 136.623 11.9531C136.359 11.7486 136.178 11.5078 136.08 11.2308C135.982 10.9496 135.933 10.6449 135.933 10.3168V7.99006C135.933 7.51705 135.878 7.12926 135.767 6.8267C135.66 6.51989 135.468 6.29403 135.191 6.14915C134.914 6.00426 134.529 5.93182 134.034 5.93182V4.4169ZM139.659 11.6463V13.4872H137.889V11.6463H139.659Z" fill="#DBB8FF"/>
<path d="M6.69535 6.60938V4.90909H16.8267V6.60938H12.7422V18H10.7735V6.60938H6.69535ZM19.9234 12.1705V18H18.0121V4.90909H19.8978V9.77983H20.0192C20.2494 9.25142 20.6009 8.83168 21.0739 8.5206C21.5469 8.20952 22.1648 8.05398 22.9276 8.05398C23.6009 8.05398 24.189 8.19247 24.6918 8.46946C25.1989 8.74645 25.591 9.1598 25.868 9.70952C26.1492 10.255 26.2898 10.9368 26.2898 11.755V18H24.3786V11.9851C24.3786 11.2649 24.1933 10.7067 23.8225 10.3104C23.4518 9.9098 22.9362 9.70952 22.2756 9.70952C21.8239 9.70952 21.4191 9.8054 21.0612 9.99716C20.7075 10.1889 20.4283 10.4702 20.2238 10.8409C20.0235 11.2074 19.9234 11.6506 19.9234 12.1705ZM32.1718 18.1982C31.2045 18.1982 30.3714 17.9915 29.6725 17.5781C28.9779 17.1605 28.441 16.5746 28.0617 15.8203C27.6867 15.0618 27.4992 14.1733 27.4992 13.1548C27.4992 12.1491 27.6867 11.2628 28.0617 10.4957C28.441 9.72869 28.9694 9.12997 29.6469 8.69957C30.3288 8.26918 31.1256 8.05398 32.0376 8.05398C32.5915 8.05398 33.1285 8.1456 33.6484 8.32884C34.1683 8.51207 34.6349 8.79972 35.0482 9.19176C35.4616 9.58381 35.7876 10.093 36.0262 10.7195C36.2648 11.3416 36.3842 12.098 36.3842 12.9886V13.6662H28.5795V12.2344H34.5113C34.5113 11.7315 34.409 11.2862 34.2045 10.8984C33.9999 10.5064 33.7123 10.1974 33.3415 9.97159C32.9751 9.74574 32.5447 9.63281 32.0504 9.63281C31.5134 9.63281 31.0447 9.76491 30.6441 10.0291C30.2478 10.2891 29.941 10.63 29.7236 11.0518C29.5106 11.4695 29.404 11.9233 29.404 12.4134V13.532C29.404 14.1882 29.5191 14.7464 29.7492 15.2067C29.9836 15.6669 30.3096 16.0185 30.7272 16.2614C31.1448 16.5 31.6327 16.6193 32.191 16.6193C32.5532 16.6193 32.8835 16.5682 33.1817 16.4659C33.48 16.3594 33.7379 16.2017 33.9552 15.9929C34.1725 15.7841 34.3387 15.5263 34.4538 15.2195L36.2627 15.5455C36.1178 16.0781 35.8579 16.5447 35.4829 16.9453C35.1121 17.3416 34.6455 17.6506 34.083 17.8722C33.5248 18.0895 32.8877 18.1982 32.1718 18.1982ZM52.4947 9.16619H50.5004C50.4237 8.74006 50.2809 8.36506 50.0721 8.04119C49.8633 7.71733 49.6076 7.44247 49.305 7.21662C49.0025 6.99077 48.6637 6.82031 48.2887 6.70526C47.918 6.5902 47.5238 6.53267 47.1062 6.53267C46.3519 6.53267 45.6765 6.7223 45.0799 7.10156C44.4876 7.48082 44.0188 8.03693 43.6737 8.76989C43.3327 9.50284 43.1623 10.3977 43.1623 11.4545C43.1623 12.5199 43.3327 13.419 43.6737 14.152C44.0188 14.8849 44.4897 15.4389 45.0863 15.8139C45.6829 16.1889 46.354 16.3764 47.0998 16.3764C47.5131 16.3764 47.9052 16.321 48.2759 16.2102C48.6509 16.0952 48.9897 15.9268 49.2923 15.7053C49.5948 15.4837 49.8505 15.2131 50.0593 14.8935C50.2724 14.5696 50.4194 14.1989 50.5004 13.7812L52.4947 13.7876C52.3881 14.4311 52.1815 15.0234 51.8746 15.5646C51.5721 16.1016 51.1822 16.5661 50.7049 16.9581C50.2319 17.3459 49.6907 17.6463 49.0813 17.8594C48.4719 18.0724 47.8072 18.179 47.087 18.179C45.9535 18.179 44.9435 17.9105 44.0572 17.3736C43.1708 16.8324 42.4719 16.0589 41.9606 15.0533C41.4535 14.0476 41.1999 12.848 41.1999 11.4545C41.1999 10.0568 41.4556 8.85724 41.967 7.85582C42.4783 6.85014 43.1772 6.07883 44.0636 5.5419C44.9499 5.00071 45.9577 4.73011 47.087 4.73011C47.7816 4.73011 48.4293 4.83026 49.0302 5.03054C49.6353 5.22656 50.1786 5.51633 50.6602 5.89986C51.1417 6.27912 51.5401 6.74361 51.8555 7.29332C52.1708 7.83878 52.3839 8.46307 52.4947 9.16619ZM61.098 8.34801C61.0299 7.7429 60.7486 7.27415 60.2543 6.94176C59.76 6.60511 59.1378 6.43679 58.3878 6.43679C57.8509 6.43679 57.3864 6.52202 56.9944 6.69247C56.6023 6.85866 56.2976 7.08878 56.0803 7.38281C55.8672 7.67258 55.7607 8.00284 55.7607 8.37358C55.7607 8.68466 55.8331 8.95312 55.978 9.17898C56.1272 9.40483 56.3211 9.59446 56.5597 9.74787C56.8026 9.89702 57.0625 10.0227 57.3395 10.125C57.6165 10.223 57.8828 10.304 58.1385 10.3679L59.4169 10.7003C59.8346 10.8026 60.2628 10.9411 60.7017 11.1158C61.1407 11.2905 61.5476 11.5206 61.9226 11.8061C62.2976 12.0916 62.6002 12.4453 62.8303 12.8672C63.0647 13.2891 63.1819 13.794 63.1819 14.3821C63.1819 15.1236 62.9901 15.782 62.6066 16.3572C62.2273 16.9325 61.6755 17.3864 60.951 17.7188C60.2309 18.0511 59.3594 18.2173 58.3367 18.2173C57.3566 18.2173 56.5086 18.0618 55.7926 17.7507C55.0767 17.4396 54.5164 16.9986 54.1115 16.4276C53.7067 15.8523 53.483 15.1705 53.4404 14.3821H55.4219C55.4603 14.8551 55.6137 15.2493 55.8821 15.5646C56.1549 15.8757 56.5022 16.108 56.924 16.2614C57.3502 16.4105 57.8168 16.4851 58.3239 16.4851C58.8821 16.4851 59.3786 16.3977 59.8132 16.223C60.2522 16.044 60.5973 15.7969 60.8488 15.4815C61.1002 15.1619 61.2259 14.7891 61.2259 14.3629C61.2259 13.9751 61.1151 13.6577 60.8935 13.4105C60.6762 13.1634 60.38 12.9588 60.005 12.7969C59.6343 12.6349 59.2145 12.4922 58.7458 12.3686L57.1989 11.9467C56.1506 11.6612 55.3196 11.2415 54.706 10.6875C54.0966 10.1335 53.7919 9.40057 53.7919 8.48864C53.7919 7.73437 53.9965 7.07599 54.4056 6.51349C54.8147 5.95099 55.3686 5.5142 56.0675 5.20312C56.7664 4.88778 57.5547 4.73011 58.4326 4.73011C59.3189 4.73011 60.1009 4.88565 60.7784 5.19673C61.4603 5.50781 61.9972 5.93608 62.3892 6.48153C62.7813 7.02273 62.9858 7.64489 63.0029 8.34801H61.098ZM75.515 9.16619H73.5207C73.444 8.74006 73.3012 8.36506 73.0924 8.04119C72.8836 7.71733 72.6279 7.44247 72.3254 7.21662C72.0228 6.99077 71.684 6.82031 71.309 6.70526C70.9383 6.5902 70.5441 6.53267 70.1265 6.53267C69.3722 6.53267 68.6968 6.7223 68.1002 7.10156C67.5079 7.48082 67.0391 8.03693 66.694 8.76989C66.3531 9.50284 66.1826 10.3977 66.1826 11.4545C66.1826 12.5199 66.3531 13.419 66.694 14.152C67.0391 14.8849 67.51 15.4389 68.1066 15.8139C68.7032 16.1889 69.3744 16.3764 70.1201 16.3764C70.5335 16.3764 70.9255 16.321 71.2962 16.2102C71.6712 16.0952 72.01 15.9268 72.3126 15.7053C72.6151 15.4837 72.8708 15.2131 73.0796 14.8935C73.2927 14.5696 73.4397 14.1989 73.5207 13.7812L75.515 13.7876C75.4085 14.4311 75.2018 15.0234 74.895 15.5646C74.5924 16.1016 74.2025 16.5661 73.7252 16.9581C73.2522 17.3459 72.711 17.6463 72.1016 17.8594C71.4923 18.0724 70.8275 18.179 70.1073 18.179C68.9738 18.179 67.9639 17.9105 67.0775 17.3736C66.1911 16.8324 65.4923 16.0589 64.9809 15.0533C64.4738 14.0476 64.2202 12.848 64.2202 11.4545C64.2202 10.0568 64.4759 8.85724 64.9873 7.85582C65.4987 6.85014 66.1975 6.07883 67.0839 5.5419C67.9702 5.00071 68.9781 4.73011 70.1073 4.73011C70.8019 4.73011 71.4496 4.83026 72.0505 5.03054C72.6556 5.22656 73.1989 5.51633 73.6805 5.89986C74.162 6.27912 74.5604 6.74361 74.8758 7.29332C75.1911 7.83878 75.4042 8.46307 75.515 9.16619ZM80.8421 18V4.90909H82.8173V16.2997H88.7491V18H80.8421ZM89.9489 18V8.18182H91.8601V18H89.9489ZM90.9141 6.6669C90.5817 6.6669 90.2962 6.55611 90.0575 6.33452C89.8232 6.10866 89.706 5.8402 89.706 5.52912C89.706 5.21378 89.8232 4.94531 90.0575 4.72372C90.2962 4.49787 90.5817 4.38494 90.9141 4.38494C91.2464 4.38494 91.5298 4.49787 91.7642 4.72372C92.0028 4.94531 92.1222 5.21378 92.1222 5.52912C92.1222 5.8402 92.0028 6.10866 91.7642 6.33452C91.5298 6.55611 91.2464 6.6669 90.9141 6.6669ZM93.6847 18V4.90909H95.5959V9.77344H95.711C95.8218 9.56889 95.9816 9.33239 96.1904 9.06392C96.3992 8.79545 96.689 8.56108 97.0597 8.3608C97.4304 8.15625 97.9205 8.05398 98.5299 8.05398C99.3225 8.05398 100.03 8.25426 100.652 8.65483C101.274 9.0554 101.762 9.63281 102.116 10.3871C102.474 11.1413 102.653 12.049 102.653 13.1101C102.653 14.1712 102.476 15.081 102.122 15.8395C101.768 16.5937 101.283 17.1754 100.665 17.5845C100.047 17.9893 99.3417 18.1918 98.549 18.1918C97.9524 18.1918 97.4645 18.0916 97.0853 17.8913C96.7103 17.6911 96.4162 17.4567 96.2032 17.1882C95.9901 16.9197 95.826 16.6811 95.711 16.4723H95.5512V18H93.6847ZM95.5576 13.0909C95.5576 13.7812 95.6577 14.3864 95.858 14.9062C96.0583 15.4261 96.348 15.8331 96.7273 16.1271C97.1066 16.4169 97.5711 16.5618 98.1208 16.5618C98.6918 16.5618 99.1691 16.4105 99.5526 16.108C99.9361 15.8011 100.226 15.3857 100.422 14.8615C100.622 14.3374 100.722 13.7472 100.722 13.0909C100.722 12.4432 100.624 11.8615 100.428 11.3459C100.237 10.8303 99.9468 10.4233 99.559 10.125C99.1755 9.8267 98.6961 9.67756 98.1208 9.67756C97.5668 9.67756 97.098 9.82031 96.7145 10.1058C96.3353 10.3913 96.0476 10.7898 95.8516 11.3011C95.6556 11.8125 95.5576 12.4091 95.5576 13.0909ZM103.899 18V8.18182H105.746V9.74148H105.848C106.027 9.21307 106.343 8.79758 106.794 8.49503C107.25 8.18821 107.766 8.0348 108.341 8.0348C108.461 8.0348 108.601 8.03906 108.763 8.04759C108.929 8.05611 109.059 8.06676 109.153 8.07955V9.90767C109.076 9.88636 108.94 9.86293 108.744 9.83736C108.548 9.80753 108.352 9.79261 108.156 9.79261C107.704 9.79261 107.302 9.88849 106.948 10.0803C106.598 10.2678 106.321 10.5298 106.117 10.8665C105.912 11.1989 105.81 11.5781 105.81 12.0043V18H103.899ZM112.676 18.2173C112.054 18.2173 111.492 18.1023 110.989 17.8722C110.486 17.6378 110.088 17.299 109.794 16.8558C109.504 16.4126 109.359 15.8693 109.359 15.2259C109.359 14.6719 109.465 14.2159 109.679 13.858C109.892 13.5 110.179 13.2166 110.541 13.0078C110.904 12.799 111.309 12.6413 111.756 12.5348C112.203 12.4283 112.659 12.3473 113.124 12.2919C113.712 12.2237 114.189 12.1683 114.556 12.1257C114.922 12.0788 115.188 12.0043 115.355 11.902C115.521 11.7997 115.604 11.6335 115.604 11.4034V11.3587C115.604 10.8004 115.446 10.3679 115.131 10.0611C114.82 9.75426 114.355 9.60085 113.738 9.60085C113.094 9.60085 112.587 9.74361 112.216 10.0291C111.85 10.3104 111.596 10.6236 111.456 10.9688L109.659 10.5597C109.872 9.96307 110.184 9.48153 110.593 9.11506C111.006 8.74432 111.481 8.47585 112.018 8.30966C112.555 8.1392 113.12 8.05398 113.712 8.05398C114.104 8.05398 114.519 8.10085 114.958 8.1946C115.402 8.28409 115.815 8.45028 116.198 8.69318C116.586 8.93608 116.904 9.28338 117.151 9.73509C117.398 10.1825 117.522 10.7642 117.522 11.4801V18H115.655V16.6577H115.578C115.455 16.9048 115.269 17.1477 115.022 17.3864C114.775 17.625 114.458 17.8232 114.07 17.9808C113.682 18.1385 113.218 18.2173 112.676 18.2173ZM113.092 16.6832C113.62 16.6832 114.072 16.5788 114.447 16.37C114.826 16.1612 115.114 15.8885 115.31 15.5518C115.51 15.2109 115.61 14.8466 115.61 14.4588V13.1932C115.542 13.2614 115.41 13.3253 115.214 13.3849C115.022 13.4403 114.803 13.4893 114.556 13.532C114.309 13.5703 114.068 13.6065 113.833 13.6406C113.599 13.6705 113.403 13.696 113.245 13.7173C112.875 13.7642 112.536 13.843 112.229 13.9538C111.926 14.0646 111.684 14.2244 111.5 14.4332C111.321 14.6378 111.232 14.9105 111.232 15.2514C111.232 15.7244 111.407 16.0824 111.756 16.3253C112.105 16.5639 112.551 16.6832 113.092 16.6832ZM119.167 18V8.18182H121.015V9.74148H121.117C121.296 9.21307 121.611 8.79758 122.063 8.49503C122.519 8.18821 123.034 8.0348 123.61 8.0348C123.729 8.0348 123.87 8.03906 124.032 8.04759C124.198 8.05611 124.328 8.06676 124.421 8.07955V9.90767C124.345 9.88636 124.208 9.86293 124.012 9.83736C123.816 9.80753 123.62 9.79261 123.424 9.79261C122.973 9.79261 122.57 9.88849 122.216 10.0803C121.867 10.2678 121.59 10.5298 121.385 10.8665C121.181 11.1989 121.078 11.5781 121.078 12.0043V18H119.167ZM126.682 21.6818C126.397 21.6818 126.137 21.6584 125.903 21.6115C125.668 21.5689 125.493 21.522 125.378 21.4709L125.839 19.9048C126.188 19.9986 126.499 20.0391 126.772 20.0263C127.045 20.0135 127.285 19.9112 127.494 19.7195C127.707 19.5277 127.895 19.2145 128.057 18.7798L128.293 18.1278L124.701 8.18182H126.746L129.233 15.8011H129.335L131.822 8.18182H133.873L129.827 19.3104C129.64 19.8217 129.401 20.2543 129.111 20.608C128.822 20.9659 128.476 21.2344 128.076 21.4134C127.675 21.5923 127.211 21.6818 126.682 21.6818Z" fill="white"/>
</svg>
